<svg xmlns="http://www.w3.org/2000/svg" xmlns:xlink="http://www.w3.org/1999/xlink" contentStyleType="text/css" data-diagram-type="CLASS" height="349px" preserveAspectRatio="none" style="width:1158px;height:349px;background:#FFFFFF;" version="1.1" viewBox="0 0 1158 349" width="1158px" zoomAndPan="magnify"><defs/><g><!--class IVehicleDatabase--><g class="entity" data-entity="IVehicleDatabase" data-source-line="1" data-uid="ent0002" id="entity_IVehicleDatabase"><rect fill="#F1F1F1" height="80.5938" rx="2.5" ry="2.5" style="stroke:#181818;stroke-width:0.5;" width="304.1816" x="49" y="237.23"/><ellipse cx="135.7993" cy="253.23" fill="#B4A7E5" rx="11" ry="11" style="stroke:#181818;stroke-width:1;"/><path d="M131.7212,248.9956 L131.7212,246.8394 L139.1118,246.8394 L139.1118,248.9956 L136.6431,248.9956 L136.6431,257.0737 L139.1118,257.0737 L139.1118,259.23 L131.7212,259.23 L131.7212,257.0737 L134.1899,257.0737 L134.1899,248.9956 L131.7212,248.9956 Z " fill="#000000"/><text fill="#000000" font-family="sans-serif" font-size="14" font-style="italic" lengthAdjust="spacing" textLength="122.083" x="156.2993" y="258.0767">IVehicleDatabase</text><line style="stroke:#181818;stroke-width:0.5;" x1="50" x2="352.1816" y1="269.23" y2="269.23"/><line style="stroke:#181818;stroke-width:0.5;" x1="50" x2="352.1816" y1="277.23" y2="277.23"/><ellipse cx="60" cy="290.8784" fill="#84BE84" rx="3" ry="3" style="stroke:#038048;stroke-width:1;"/><text fill="#000000" font-family="sans-serif" font-size="14" lengthAdjust="spacing" textLength="278.1816" x="69" y="294.2251">SaveToDatabase(vehicle: Vehicle): void</text><ellipse cx="60" cy="307.1753" fill="#84BE84" rx="3" ry="3" style="stroke:#038048;stroke-width:1;"/><text fill="#000000" font-family="sans-serif" font-size="14" lengthAdjust="spacing" textLength="262.8008" x="69" y="310.522">LogVehicleInfo(vehicle: Vehicle): void</text></g><!--class IVehiclePricing--><g class="entity" data-entity="IVehiclePricing" data-source-line="6" data-uid="ent0003" id="entity_IVehiclePricing"><rect fill="#F1F1F1" height="64.2969" rx="2.5" ry="2.5" style="stroke:#181818;stroke-width:0.5;" width="422.5117" x="686.83" y="245.38"/><ellipse cx="842.4775" cy="261.38" fill="#B4A7E5" rx="11" ry="11" style="stroke:#181818;stroke-width:1;"/><path d="M838.3993,257.1456 L838.3993,254.9894 L845.79,254.9894 L845.79,257.1456 L843.3212,257.1456 L843.3212,265.2238 L845.79,265.2238 L845.79,267.38 L838.3993,267.38 L838.3993,265.2238 L840.8681,265.2238 L840.8681,257.1456 L838.3993,257.1456 Z " fill="#000000"/><text fill="#000000" font-family="sans-serif" font-size="14" font-style="italic" lengthAdjust="spacing" textLength="102.7168" x="862.9775" y="266.2267">IVehiclePricing</text><line style="stroke:#181818;stroke-width:0.5;" x1="687.83" x2="1108.3417" y1="277.38" y2="277.38"/><line style="stroke:#181818;stroke-width:0.5;" x1="687.83" x2="1108.3417" y1="285.38" y2="285.38"/><ellipse cx="697.83" cy="299.0284" fill="#84BE84" rx="3" ry="3" style="stroke:#038048;stroke-width:1;"/><text fill="#000000" font-family="sans-serif" font-size="14" lengthAdjust="spacing" textLength="396.5117" x="706.83" y="302.3751">CalculateRentalCost(vehicle: Vehicle, days: int): decimal</text></g><!--class Vehicle--><g class="entity" data-entity="Vehicle" data-source-line="10" data-uid="ent0004" id="entity_Vehicle"><rect fill="#F1F1F1" height="129.4844" rx="2.5" ry="2.5" style="stroke:#181818;stroke-width:0.5;" width="179.959" x="430.11" y="212.79"/><ellipse cx="490.2628" cy="228.79" fill="#ADD1B2" rx="11" ry="11" style="stroke:#181818;stroke-width:1;"/><path d="M493.2316,234.4306 Q492.6535,234.7275 492.0128,234.8681 Q491.3722,235.0244 490.6691,235.0244 Q488.1691,235.0244 486.841,233.3838 Q485.5285,231.7275 485.5285,228.6025 Q485.5285,225.4775 486.841,223.8213 Q488.1691,222.165 490.6691,222.165 Q491.3722,222.165 492.0128,222.3213 Q492.6691,222.4775 493.2316,222.7744 L493.2316,225.4931 Q492.6066,224.915 492.0128,224.6494 Q491.4191,224.3681 490.7941,224.3681 Q489.4503,224.3681 488.7628,225.4463 Q488.0753,226.5088 488.0753,228.6025 Q488.0753,230.6963 488.7628,231.7744 Q489.4503,232.8369 490.7941,232.8369 Q491.4191,232.8369 492.0128,232.5713 Q492.6066,232.29 493.2316,231.7119 L493.2316,234.4306 Z " fill="#000000"/><text fill="#000000" font-family="sans-serif" font-size="14" lengthAdjust="spacing" textLength="51.1533" x="510.7628" y="233.6367">Vehicle</text><line style="stroke:#181818;stroke-width:0.5;" x1="431.11" x2="609.069" y1="244.79" y2="244.79"/><rect fill="none" height="6" style="stroke:#C82930;stroke-width:1;" width="6" x="438.11" y="255.4384"/><text fill="#000000" font-family="sans-serif" font-size="14" lengthAdjust="spacing" textLength="91.3896" x="450.11" y="261.7851">Model: string</text><rect fill="none" height="6" style="stroke:#C82930;stroke-width:1;" width="6" x="438.11" y="271.7353"/><text fill="#000000" font-family="sans-serif" font-size="14" lengthAdjust="spacing" textLength="58.9189" x="450.11" y="278.082">Year: int</text><rect fill="none" height="6" style="stroke:#C82930;stroke-width:1;" width="6" x="438.11" y="288.0322"/><text fill="#000000" font-family="sans-serif" font-size="14" lengthAdjust="spacing" textLength="83.6924" x="450.11" y="294.3789">Type: string</text><rect fill="none" height="6" style="stroke:#C82930;stroke-width:1;" width="6" x="438.11" y="304.3291"/><text fill="#000000" font-family="sans-serif" font-size="14" lengthAdjust="spacing" textLength="153.959" x="450.11" y="310.6757">FuelEfficiency: double</text><rect fill="none" height="6" style="stroke:#C82930;stroke-width:1;" width="6" x="438.11" y="320.6259"/><text fill="#000000" font-family="sans-serif" font-size="14" lengthAdjust="spacing" textLength="123.9766" x="450.11" y="326.9726">ElectricRange: int</text><line style="stroke:#181818;stroke-width:0.5;" x1="431.11" x2="609.069" y1="334.2744" y2="334.2744"/></g><!--class VehicleDatabaseService--><g class="entity" data-entity="VehicleDatabaseService" data-source-line="18" data-uid="ent0005" id="entity_VehicleDatabaseService"><rect fill="#F1F1F1" height="80.5938" rx="2.5" ry="2.5" style="stroke:#181818;stroke-width:0.5;" width="304.1816" x="7" y="39.6"/><ellipse cx="69.9932" cy="55.6" fill="#ADD1B2" rx="11" ry="11" style="stroke:#181818;stroke-width:1;"/><path d="M72.9619,61.2406 Q72.3838,61.5375 71.7432,61.6781 Q71.1025,61.8344 70.3994,61.8344 Q67.8994,61.8344 66.5713,60.1937 Q65.2588,58.5375 65.2588,55.4125 Q65.2588,52.2875 66.5713,50.6312 Q67.8994,48.975 70.3994,48.975 Q71.1025,48.975 71.7432,49.1312 Q72.3994,49.2875 72.9619,49.5844 L72.9619,52.3031 Q72.3369,51.725 71.7432,51.4594 Q71.1494,51.1781 70.5244,51.1781 Q69.1807,51.1781 68.4932,52.2562 Q67.8057,53.3187 67.8057,55.4125 Q67.8057,57.5062 68.4932,58.5844 Q69.1807,59.6469 70.5244,59.6469 Q71.1494,59.6469 71.7432,59.3812 Q72.3369,59.1 72.9619,58.5219 L72.9619,61.2406 Z " fill="#000000"/><text fill="#000000" font-family="sans-serif" font-size="14" lengthAdjust="spacing" textLength="169.6953" x="90.4932" y="60.4467">VehicleDatabaseService</text><line style="stroke:#181818;stroke-width:0.5;" x1="8" x2="310.1816" y1="71.6" y2="71.6"/><line style="stroke:#181818;stroke-width:0.5;" x1="8" x2="310.1816" y1="79.6" y2="79.6"/><ellipse cx="18" cy="93.2484" fill="#84BE84" rx="3" ry="3" style="stroke:#038048;stroke-width:1;"/><text fill="#000000" font-family="sans-serif" font-size="14" lengthAdjust="spacing" textLength="278.1816" x="27" y="96.5951">SaveToDatabase(vehicle: Vehicle): void</text><ellipse cx="18" cy="109.5453" fill="#84BE84" rx="3" ry="3" style="stroke:#038048;stroke-width:1;"/><text fill="#000000" font-family="sans-serif" font-size="14" lengthAdjust="spacing" textLength="262.8008" x="27" y="112.892">LogVehicleInfo(vehicle: Vehicle): void</text></g><!--class VehiclePricingService--><g class="entity" data-entity="VehiclePricingService" data-source-line="23" data-uid="ent0006" id="entity_VehiclePricingService"><rect fill="#F1F1F1" height="64.2969" rx="2.5" ry="2.5" style="stroke:#181818;stroke-width:0.5;" width="422.5117" x="728.83" y="47.75"/><ellipse cx="860.6713" cy="63.75" fill="#ADD1B2" rx="11" ry="11" style="stroke:#181818;stroke-width:1;"/><path d="M863.6401,69.3906 Q863.0619,69.6875 862.4213,69.8281 Q861.7807,69.9844 861.0776,69.9844 Q858.5776,69.9844 857.2494,68.3438 Q855.9369,66.6875 855.9369,63.5625 Q855.9369,60.4375 857.2494,58.7813 Q858.5776,57.125 861.0776,57.125 Q861.7807,57.125 862.4213,57.2813 Q863.0776,57.4375 863.6401,57.7344 L863.6401,60.4531 Q863.0151,59.875 862.4213,59.6094 Q861.8276,59.3281 861.2026,59.3281 Q859.8588,59.3281 859.1713,60.4063 Q858.4838,61.4688 858.4838,63.5625 Q858.4838,65.6563 859.1713,66.7344 Q859.8588,67.7969 861.2026,67.7969 Q861.8276,67.7969 862.4213,67.5313 Q863.0151,67.25 863.6401,66.6719 L863.6401,69.3906 Z " fill="#000000"/><text fill="#000000" font-family="sans-serif" font-size="14" lengthAdjust="spacing" textLength="150.3291" x="881.1713" y="68.5967">VehiclePricingService</text><line style="stroke:#181818;stroke-width:0.5;" x1="729.83" x2="1150.3417" y1="79.75" y2="79.75"/><line style="stroke:#181818;stroke-width:0.5;" x1="729.83" x2="1150.3417" y1="87.75" y2="87.75"/><ellipse cx="739.83" cy="101.3984" fill="#84BE84" rx="3" ry="3" style="stroke:#038048;stroke-width:1;"/><text fill="#000000" font-family="sans-serif" font-size="14" lengthAdjust="spacing" textLength="396.5117" x="748.83" y="104.7451">CalculateRentalCost(vehicle: Vehicle, days: int): decimal</text></g><!--class VehicleRentalSystem--><g class="entity" data-entity="VehicleRentalSystem" data-source-line="27" data-uid="ent0007" id="entity_VehicleRentalSystem"><rect fill="#F1F1F1" height="145.7813" rx="2.5" ry="2.5" style="stroke:#181818;stroke-width:0.5;" width="347.4531" x="346.36" y="7"/><ellipse cx="441.5709" cy="23" fill="#ADD1B2" rx="11" ry="11" style="stroke:#181818;stroke-width:1;"/><path d="M444.5397,28.6406 Q443.9616,28.9375 443.3209,29.0781 Q442.6803,29.2344 441.9772,29.2344 Q439.4772,29.2344 438.1491,27.5938 Q436.8366,25.9375 436.8366,22.8125 Q436.8366,19.6875 438.1491,18.0313 Q439.4772,16.375 441.9772,16.375 Q442.6803,16.375 443.3209,16.5313 Q443.9772,16.6875 444.5397,16.9844 L444.5397,19.7031 Q443.9147,19.125 443.3209,18.8594 Q442.7272,18.5781 442.1022,18.5781 Q440.7584,18.5781 440.0709,19.6563 Q439.3834,20.7188 439.3834,22.8125 Q439.3834,24.9063 440.0709,25.9844 Q440.7584,27.0469 442.1022,27.0469 Q442.7272,27.0469 443.3209,26.7813 Q443.9147,26.5 444.5397,25.9219 L444.5397,28.6406 Z " fill="#000000"/><text fill="#000000" font-family="sans-serif" font-size="14" lengthAdjust="spacing" textLength="148.5313" x="462.0709" y="27.8467">VehicleRentalSystem</text><line style="stroke:#181818;stroke-width:0.5;" x1="347.36" x2="692.8131" y1="39" y2="39"/><rect fill="none" height="6" style="stroke:#C82930;stroke-width:1;" width="6" x="354.36" y="49.6484"/><text fill="#000000" font-family="sans-serif" font-size="14" lengthAdjust="spacing" textLength="166.7012" x="366.36" y="55.9951">Vehicles: List&lt;Vehicle&gt;</text><rect fill="none" height="6" style="stroke:#C82930;stroke-width:1;" width="6" x="354.36" y="65.9453"/><text fill="#000000" font-family="sans-serif" font-size="14" lengthAdjust="spacing" textLength="254.9121" x="366.36" y="72.292">_vehicleDatabase: IVehicleDatabase</text><rect fill="none" height="6" style="stroke:#C82930;stroke-width:1;" width="6" x="354.36" y="82.2422"/><text fill="#000000" font-family="sans-serif" font-size="14" lengthAdjust="spacing" textLength="216.1797" x="366.36" y="88.5889">_vehiclePricing: IVehiclePricing</text><line style="stroke:#181818;stroke-width:0.5;" x1="347.36" x2="692.8131" y1="95.8906" y2="95.8906"/><ellipse cx="357.36" cy="109.5391" fill="#84BE84" rx="3" ry="3" style="stroke:#038048;stroke-width:1;"/><text fill="#000000" font-family="sans-serif" font-size="14" lengthAdjust="spacing" textLength="238.4033" x="366.36" y="112.8857">AddVehicle(vehicle: Vehicle): void</text><ellipse cx="357.36" cy="125.8359" fill="#84BE84" rx="3" ry="3" style="stroke:#038048;stroke-width:1;"/><text fill="#000000" font-family="sans-serif" font-size="14" lengthAdjust="spacing" textLength="321.4531" x="366.36" y="129.1826">RentVehicle(model: string, days: int): decimal</text><ellipse cx="357.36" cy="142.1328" fill="#84BE84" rx="3" ry="3" style="stroke:#038048;stroke-width:1;"/><text fill="#000000" font-family="sans-serif" font-size="14" lengthAdjust="spacing" textLength="159.8174" x="366.36" y="145.4795">PrintVehicleInfo(): void</text></g><!--link VehicleRentalSystem to IVehicleDatabase--><g class="link" data-entity-1="VehicleRentalSystem" data-entity-2="IVehicleDatabase" data-source-line="37" data-uid="lnk8" id="link_VehicleRentalSystem_IVehicleDatabase"><path codeLine="37" d="M402.21,153.19 C356.07,181.49 310.0345,209.7129 270.8745,233.7329 " fill="none" id="VehicleRentalSystem-to-IVehicleDatabase" style="stroke:#181818;stroke-width:1;"/><polygon fill="#181818" points="265.76,236.87,275.5232,235.574,270.0221,234.2557,271.3403,228.7546,265.76,236.87" style="stroke:#181818;stroke-width:1;"/></g><!--link VehicleRentalSystem to IVehiclePricing--><g class="link" data-entity-1="VehicleRentalSystem" data-entity-2="IVehiclePricing" data-source-line="38" data-uid="lnk9" id="link_VehicleRentalSystem_IVehiclePricing"><path codeLine="38" d="M659.77,153.19 C720.97,184.86 784.2616,217.6117 832.0916,242.3717 " fill="none" id="VehicleRentalSystem-to-IVehiclePricing" style="stroke:#181818;stroke-width:1;"/><polygon fill="#181818" points="837.42,245.13,831.2663,237.4403,832.9797,242.8314,827.5885,244.5448,837.42,245.13" style="stroke:#181818;stroke-width:1;"/></g><!--link VehicleRentalSystem to Vehicle--><g class="link" data-entity-1="VehicleRentalSystem" data-entity-2="Vehicle" data-source-line="39" data-uid="lnk10" id="link_VehicleRentalSystem_Vehicle"><path codeLine="39" d="M520.09,153.19 C520.09,172.67 520.09,187.6 520.09,206.6 " fill="none" id="VehicleRentalSystem-to-Vehicle" style="stroke:#181818;stroke-width:1;"/><polygon fill="#181818" points="520.09,212.6,524.09,203.6,520.09,207.6,516.09,203.6,520.09,212.6" style="stroke:#181818;stroke-width:1;"/><text fill="#000000" font-family="sans-serif" font-size="13" lengthAdjust="spacing" textLength="6.5" x="513.7893" y="201.7519">*</text></g><!--link VehicleDatabaseService to IVehicleDatabase--><g class="link" data-entity-1="VehicleDatabaseService" data-entity-2="IVehicleDatabase" data-source-line="40" data-uid="lnk11" id="link_VehicleDatabaseService_IVehicleDatabase"><path codeLine="40" d="M167.59,120.48 C174.88,154.43 181.5439,185.4705 188.8239,219.4005 " fill="none" id="VehicleDatabaseService-to-IVehicleDatabase" style="stroke:#181818;stroke-width:1;stroke-dasharray:7.0,7.0;"/><polygon fill="none" points="192.6,237,194.6904,218.1418,182.9574,220.6593,192.6,237" style="stroke:#181818;stroke-width:1;"/></g><!--link VehiclePricingService to IVehiclePricing--><g class="link" data-entity-1="VehiclePricingService" data-entity-2="IVehiclePricing" data-source-line="41" data-uid="lnk12" id="link_VehiclePricingService_IVehiclePricing"><path codeLine="41" d="M933.34,112.33 C925.51,148.83 916.4284,191.101 908.5984,227.571 " fill="none" id="VehiclePricingService-to-IVehiclePricing" style="stroke:#181818;stroke-width:1;stroke-dasharray:7.0,7.0;"/><polygon fill="none" points="904.82,245.17,914.4648,228.8305,902.7321,226.3116,904.82,245.17" style="stroke:#181818;stroke-width:1;"/></g><!--SRC=[jP9DQiCm48NtFeN8gd_E0KG9b3I5G0eb3eMkoaGUkm9PAfPiC6tlNiKUXTYEsqshdMO-lQTvZDGEomm4ilKplacXy1uSxC4Y-uYOFzS9rBWpeNfHTnHdX5zoLXkPTkp6v5HUwynCibzH94U-JwKKKkV1TWbAL0eSRb4xK4jZtKZlXgNGMCwyc9TEKSW2r45TAB0sKAGOiqUJekBCkjBxKEq5eMm5wBvhtd60F5IeLbdcVuTQDDx7L7k5r5mf51uMMz0vTa93_n1TWcKjnJ_dsdEcI0V6VvTi9v0qrc5nJ9bw_l56MdTBrmLrN-j-A7oqTmEGPk33FOcwOUxIbEe_9tZuQW2BqpquFsdxnZiT7xMvd-HyBe4uNeod-GqCuqnniwjP62YQMAZv_7FQUB03FPPwtm00]--></g></svg>